<svg version="1.2" class="svggear" xmlns="http://www.w3.org/2000/svg" xmlns:xlink="http://www.w3.org/1999/xlink" x="0px" y="0px" width="376px" height="376px" viewBox="-188 -188 376 376" overflow="scroll" xml:space="preserve"><path id="gearpoly0" data-id="0" class="gear" fill="#ddd" stroke="#444" stroke-width="1" stroke-miterlimit="10" d="M83.75,0 100.2535,-0.0001776 100.3966232,-0.0059412 100.6897616,-0.0286426 101.1315907,-0.0799073 101.720111,-0.1712744 102.452653,-0.3141626 103.3258838,-0.519835 104.3358155,-0.7993651 105.477815,-1.1636032 106.7466163,-1.6231429 108.1363331,-2.1882883 109.6404737,-2.8690225 111.251958,-3.6749756 112.9631344,-4.6153947 114.7658003,-5.6991142 116.6512218,-6.9345267 118.6101568,-8.3295558 120.632878,-9.8916291 122.7091978,-11.6276531 124.8284947,-13.5439883 126.97974,-15.6464268 129.1515269,-17.9401701 131.332099,-20.4298088 133.5093819,-23.1193035 134.592937,-24.5400581 135.1327588,-25.2695982 135.149604,-25.2926028 135.1527051,-25.2981482 133.8770301,-31.3558736 133.871956,-31.3596973 133.8472639,-31.3739548 133.0590725,-31.8238332 131.4945667,-32.686942 128.417552,-34.2699528 125.418127,-35.6687542 122.5057435,-36.89184 119.689308,-37.9481521 116.977161,-38.8470507 114.3770586,-39.5982834 111.8961551,-40.2119543 109.5409877,-40.6984918 107.3174619,-41.0686156 105.2308397,-41.3333036 103.2857283,-41.503758 101.4860711,-41.5913709 99.8351405,-41.6076898 98.3355318,-41.5643824 96.989159,-41.4732017 95.7972532,-41.3459509 94.7603608,-41.1944476 93.8783457,-41.030489 93.1503912,-40.8658164 92.5750048,-40.7120805 92.1500245,-40.5808068 91.8726263,-40.483361 91.7393338,-40.4309151 76.6373564,-33.7754069 64.1562221,-53.8334623 76.7985224,-64.4418437 76.9044564,-64.5382567 77.1144212,-64.7440727 77.4199297,-65.0673459 77.8120327,-65.5156308 78.2813457,-66.0959585 78.8180756,-66.8148146 79.4120496,-67.6781186 80.0527443,-68.6912044 80.7293161,-69.8588019 81.4306324,-71.1850211 82.1453036,-72.6733367 82.8617154,-74.3265747 83.5680629,-76.1469007 84.2523836,-78.1358092 84.9025924,-80.2941157 85.5065163,-82.6219491 86.0519292,-85.1187468 86.5265878,-87.783251 86.9182668,-90.6135067 87.2147949,-93.6068619 87.4040904,-96.7599689 87.4741967,-100.0687875 87.4133182,-103.5285904 87.3301262,-105.3134474 87.2747143,-106.2192983 87.2728314,-106.2477487 87.2716425,-106.2539901 82.400588,-110.0744889 82.3942431,-110.0741565 82.3661633,-110.0692065 81.4731974,-109.9071938 79.7199208,-109.5627285 76.345251,-108.7975182 73.148426,-107.941069 70.1312264,-107.0059631 67.2947273,-106.0047753 64.6393013,-104.950037 62.1646242,-103.854201 59.8696818,-102.7296062 57.7527786,-101.5884431 55.8115481,-100.4427196 54.0429645,-99.3042275 52.4433568,-98.1845096 51.0084229,-97.0948277 49.7332472,-96.0461309 48.6123177,-95.0490256 47.6395461,-94.1137454 46.8082885,-93.2501233 46.1113673,-92.4675635 45.5410951,-91.7750155 45.0892991,-91.1809488 44.7473471,-90.6933291 44.5061744,-90.3195956 44.356312,-90.0666396 44.2879156,-89.9407849 36.9972079,-75.1350059 14.5430349,-82.4776493 17.4086626,-98.7304549 17.4278397,-98.8724046 17.4563861,-99.1650316 17.4826231,-99.6090503 17.4948395,-100.2044955 17.4813267,-100.9507208 17.4304139,-101.8463999 17.3305032,-102.8895283 17.1701049,-104.0774276 16.9378717,-105.4067512 16.6226339,-106.8734915 16.2134329,-108.4729891 15.6995553,-110.1999435 15.0705659,-112.0484255 14.3163402,-114.0118907 13.4270964,-116.0831956 12.3934265,-118.2546142 11.2063264,-120.5178569 9.8572257,-122.8640901 8.3380159,-125.2839583 6.641078,-127.767606 4.7593087,-130.3047028 2.6861456,-132.8844684 0.4155915,-135.4956993 -0.7954213,-136.8095043 -1.4201389,-137.4678082 -1.4398689,-137.4883922 -1.4447915,-137.4924092 -7.6320051,-137.2880275 -7.6366519,-137.2836945 -7.6549805,-137.2618533 -8.2348922,-136.5637569 -9.356562,-135.1728967 -11.4498413,-132.4175157 -13.3482364,-129.706558 -15.0584709,-127.0508068 -16.5878042,-124.460586 -17.9440058,-121.9457347 -19.1353287,-119.5155838 -20.1704809,-117.1789337 -21.0585974,-114.9440329 -21.8092094,-112.8185588 -22.4322143,-110.8095996 -22.9378442,-108.9236379 -23.3366333,-107.1665354 -23.6393853,-105.5435199 -23.8571401,-104.0591733 -24.0011399,-102.7174217 -24.0827946,-101.5215267 -24.1136474,-100.4740788 -24.10534,-99.5769923 -24.0695771,-98.831502 -24.0180917,-98.2381611 -23.9626094,-97.7968418 -23.9148136,-97.5067366 -23.8863105,-97.3663619 -19.9543453,-81.3381006 -41.875,-72.5296276 -50.1269038,-86.821989 -50.2034568,-86.9430556 -50.369686,-87.1855701 -50.6349971,-87.542573 -51.0083835,-88.006563 -51.4983993,-88.5695189 -52.1131322,-89.2229228 -52.8601782,-89.9577841 -53.7466175,-90.7646657 -54.7789911,-91.6337101 -55.9632798,-92.5546673 -57.3048832,-93.5169243 -58.8086012,-94.509534 -60.4786163,-95.5212467 -62.3184778,-96.5405414 -64.3310872,-97.5556581 -66.5186853,-98.5546311 -68.8828411,-99.5253223 -71.4244419,-100.455456 -74.1436853,-101.3326533 -77.0400731,-102.1444672 -80.1124065,-102.8784181 -83.3587829,-103.5220297 -86.7765951,-104.0628646 -88.5487823,-104.2908736 -89.4504933,-104.3936029 -89.4788386,-104.396689 -89.4851915,-104.3966019 -94.0934981,-100.2629723 -94.0942725,-100.2566661 -94.0942738,-100.2281534 -94.0897843,-99.3206204 -94.0550055,-97.5341642 -93.8874257,-94.0778859 -93.5991107,-90.780907 -93.2021424,-87.647166 -92.7087178,-84.6799053 -92.1311132,-81.8816678 -91.4816486,-79.2542967 -90.7726515,-76.7989358 -90.0164216,-74.5160322 -89.2251954,-72.4053405 -88.4111108,-70.4659286 -87.5861729,-68.6961855 -86.7622194,-67.0938303 -85.9508866,-65.655923 -85.1635769,-64.3788774 -84.4114258,-63.2584748 -83.7052704,-62.2898794 -83.0556185,-61.4676559 -82.4726186,-60.7857877 -81.9660307,-60.2376969 -81.5451984,-59.8162657 -81.2190219,-59.5138588 -80.9959322,-59.3223478 -80.8838665,-59.233136 -67.5690386,-49.482194 -78.699257,-28.644187 -94.2075349,-34.2885495 -94.343998,-34.3320846 -94.6272223,-34.4110114 -95.0599394,-34.5139529 -95.644217,-34.6293816 -96.381452,-34.7456548 -97.2723646,-34.8510485 -98.3169948,-34.933793 -99.5147002,-34.982108 -100.8641552,-34.9842376 -102.3633529,-34.9284858 -104.0096076,-34.8032513 -105.7995596,-34.5970632 -107.7291818,-34.2986151 -109.7937875,-33.8967999 -111.9880402,-33.380744 -114.305965,-32.7398407 -116.7409617,-31.9637833 -119.2858193,-31.0425976 -121.9327321,-29.9666737 -124.6733179,-28.726797 -127.4986363,-27.3141782 -130.3992105,-25.7204828 -133.3650485,-23.937859 -134.8691839,-22.9733841 -135.6259678,-22.4724706 -135.6496652,-22.4566147 -135.6544759,-22.4524644 -136.5275977,-16.323758 -136.5241374,-16.3184294 -136.5058107,-16.2965866 -135.9190206,-15.6042618 -134.7440666,-14.2581123 -132.3940401,-11.7181678 -130.0539208,-9.3778607 -127.7354956,-7.2324422 -125.450192,-5.2765558 -123.2090488,-3.5042585 -121.0226885,-1.9090433 -118.9012896,-0.4838623 -116.8545618,0.7788481 -114.8917208,1.8871413 -113.021466,2.8495335 -111.251958,3.6749756 -109.5907988,4.3728238 -108.0450129,4.95281 -106.6210296,5.4250107 -105.3246675,5.7998156 -104.1611199,6.0878947 -103.1349427,6.3001663 -102.2500424,6.4477625 -101.5096676,6.5419959 -100.9164005,6.5943252 -100.4721514,6.6163201 -100.1781539,6.6196268 -100.0349623,6.6159325 -83.5674278,5.526981 -78.699257,28.644187 -94.2074134,34.2888834 -94.339934,34.3432503 -94.6076296,34.4648419 -95.0052796,34.6641294 -95.5270584,34.9512723 -96.1665521,35.3360874 -96.9167765,35.8280187 -97.7701969,36.4361081 -98.7187487,37.1689668 -99.7538601,38.0347484 -100.8664755,39.0411225 -102.0470806,40.1952498 -103.2857283,41.503758 -104.5720659,42.9727198 -105.8953638,44.607631 -107.2445445,46.4133912 -108.6082132,48.3942849 -109.9746889,50.5539651 -111.3320361,52.8954372 -112.6680985,55.4210455 -113.9705315,58.1324607 -115.2268372,61.0306692 -116.4243982,64.1159639 -117.5505134,67.3879369 -118.0827955,69.0936071 -118.3405447,69.9637805 -118.3485059,69.9911592 -118.3495234,69.9974307 -115.0789169,75.253524 -115.072841,75.2553818 -115.0447617,75.2603342 -114.1502366,75.4135043 -112.3848814,75.6894687 -108.9520118,76.1246113 -105.655056,76.4131908 -102.4999908,76.5664217 -99.4921271,76.5957528 -96.6361012,76.5128322 -93.9358674,76.3294727 -91.3946929,76.0576157 -89.0151538,75.7092967 -86.7991332,75.2966087 -84.7478211,74.8316673 -82.8617154,74.3265747 -81.1406255,73.7933849 -79.5836768,73.2440681 -78.1893175,72.6904761 -76.9553266,72.1443077 -75.8788238,71.6170752 -74.9562809,71.1200706 -74.183535,70.664333 -73.5558028,70.2606162 -73.0676973,69.9193581 -72.7132447,69.6506493 -72.4859041,69.4642044 -72.3785876,69.3693327 -60.4636887,57.9500202 -41.875,72.5296276 -50.1265961,86.8221666 -50.1931664,86.9489967 -50.3200756,87.2142127 -50.4965936,87.6224803 -50.7117275,88.1778374 -50.9542537,88.8836815 -51.2127516,89.7427578 -51.4756372,90.7571493 -51.7311976,91.928269 -51.9676252,93.2568529 -52.1730533,94.7429557 -52.3355905,96.3859468 -52.4433568,98.1845096 -52.4845181,100.1366415 -52.4473225,102.2396556 -52.3201346,104.4901848 -52.0914715,106.8841868 -51.7500369,109.4169514 -51.2847559,112.0831091 -50.6848094,114.8766417 -49.9396669,117.7908941 -49.0391204,120.8185883 -47.9733161,123.9518385 -46.7327867,127.1821681 -46.0441548,128.8309317 -45.6822654,129.6632011 -45.6707654,129.6892918 -45.6675136,129.6947501 -39.783532,131.6188458 -39.7776834,131.6163634 -39.7529901,131.6021081 -38.9692882,131.1444537 -37.4395612,130.2211062 -34.5301263,128.3478387 -31.8190163,126.4496611 -29.3036012,124.539006 -26.9805903,122.6280574 -24.8460478,120.7287184 -22.89541,118.85258 -21.1235036,117.0108901 -19.524566,115.214524 -18.0922665,113.4739561 -16.8197289,111.7992322 -15.6995553,110.1999435 -14.7238517,108.6852012 -13.8842539,107.2636128 -13.1719549,105.9432598 -12.5777332,104.7316765 -12.0919827,103.6358303 -11.7047423,102.6621035 -11.4057271,101.8162767 -11.1843605,101.1035133 -11.0298064,100.5283462 -10.9310026,100.0946656 -10.8766941,99.8057088 -10.8554673,99.6640511 -9.0683178,83.2576009 14.5430349,82.4776493 17.4090125,98.7303932 17.4395416,98.8703412 17.5128011,99.1550841 17.6400097,99.5812988 17.8321843,100.1450125 18.1001063,100.8416133 18.454289,101.6658631 18.9049452,102.6119117 19.4619558,103.6733124 20.1348391,104.8430396 20.9327205,106.1135069 21.864304,107.476588 22.9378442,108.9236379 24.161119,110.4455157 25.5414039,112.0326091 27.0854477,113.6748597 28.7994487,115.3617898 30.6890325,117.0825301 32.7592315,118.8258486 35.0144653,120.5801805 37.4585229,122.333659 40.0945459,124.0741471 42.9250137,125.7892703 45.9517302,127.4664494 47.5390577,128.2868315 48.3512535,128.6917689 48.3768338,128.7043634 48.3828334,128.7064545 54.1270097,126.3982469 54.1298943,126.3925859 54.1396474,126.3657931 54.4458232,125.5114556 55.0241458,123.8208408 56.0487891,120.515686 56.9054948,117.3189296 57.6042691,114.2384052 58.1554646,111.281331 58.5697475,108.4542955 58.8580643,105.7632443 59.0316078,103.2134685 59.1017831,100.809595 59.0801727,98.5555783 58.9785014,96.4546939 58.8086012,94.509534 58.5823759,92.7220039 58.3117657,91.0933209 58.0087119,89.6240148 57.6851213,88.3139299 57.3528315,87.1622286 57.0235754,86.1673972 56.7089473,85.327253 56.4203685,84.6389529 56.1690534,84.0990039 55.965977,83.7032755 55.8218419,83.4470128 55.7470468,83.3248524 46.5702198,69.6080248 64.1562221,53.8334623 76.7987507,64.4415715 76.9120942,64.5291542 77.1512435,64.7001896 77.5226565,64.9449209 78.0322189,65.2532232 78.6852254,65.6146334 79.4863626,66.0183812 80.4396937,66.4534202 81.5486438,66.9084608 82.8159884,67.3720028 84.2438416,67.832369 85.8336477,68.2777393 87.5861729,68.6961855 89.5015,69.0757057 91.5790236,69.4042597 93.8174481,69.6698044 96.2147868,69.8603293 98.7683625,69.9638918 101.4748104,69.9686529 104.3300826,69.8629127 107.3294536,69.6351452 110.4675285,69.2740336 113.7382526,68.7685045 117.1349219,68.1077624 118.8782168,67.7158971 119.7606836,67.5040278 119.7883748,67.4972331 119.7943149,67.4949784 122.710922,62.0345035 122.7094929,62.0283127 122.6997421,62.0015191 122.3851288,61.1502526 121.7414434,59.4834279 120.4018531,56.2929044 119.0032924,53.2933671 117.5584617,50.484385 116.0799313,47.8648332 114.580107,45.4329024 113.0711961,43.1861112 111.5651738,41.1213179 110.0737512,39.2347361 108.6083426,37.52195 107.1800354,35.9779323 105.7995596,34.5970632 104.4772587,33.3731505 103.2230621,32.2994518 102.0464577,31.3686973 100.9564665,30.573114 99.9616184,29.9044514 99.0699284,29.3540081 98.288875,28.9126593 97.6253799,28.5708857 97.0857889,28.318803 96.6758541,28.1461924 96.4007177,28.0425322 96.2648981,27.9970292 80.418034,23.3880803 z"></path></svg> 
